<?xml version="1.0" encoding="utf-8"?>
<!-- Generator: Adobe Illustrator 15.1.0, SVG Export Plug-In  -->
<!DOCTYPE svg PUBLIC "-//W3C//DTD SVG 1.1//EN" "http://www.w3.org/Graphics/SVG/1.1/DTD/svg11.dtd" [
	<!ENTITY ns_flows "http://ns.adobe.com/Flows/1.0/">
]>
<svg version="1.1"
	 xmlns="http://www.w3.org/2000/svg" xmlns:xlink="http://www.w3.org/1999/xlink" xmlns:a="http://ns.adobe.com/AdobeSVGViewerExtensions/3.0/"
	 x="0px" y="0px" width="195px" height="55px" viewBox="0 0 195 55" enable-background="new 0 0 195 55" xml:space="preserve">
<defs>
</defs>
<path d="M49.874,48.276H50.5l1.92,5.799h-0.544l-0.599-1.887h-2.249l-0.601,1.887h-0.482L49.874,48.276z M51.159,51.798
	l-0.988-3.096l-1.006,3.096H51.159z"/>
<path d="M55.913,48.481h-1.668v-0.424h3.867l-0.036,0.424h-1.683v5.594h-0.48V48.481z"/>
<path d="M58.622,48.659c0-0.555-0.098-0.854-0.112-0.896l0.472-0.098c0.018,0.043,0.115,0.359,0.115,1.01v1.158
	c0,0.252-0.02,0.514-0.02,0.514c0.387-0.393,0.896-0.717,1.457-0.717c0.482,0,0.877,0.24,1,0.563
	c0.095,0.176,0.156,0.365,0.156,0.682v3.201h-0.471v-3.121c0-0.318-0.071-0.543-0.211-0.684c-0.115-0.123-0.316-0.213-0.579-0.213
	c-0.448,0-0.938,0.264-1.333,0.756v3.262h-0.475V48.659z"/>
<path d="M62.761,51.856c0-0.744,0.169-1.246,0.517-1.658c0.303-0.348,0.704-0.586,1.239-0.586c0.463,0,0.832,0.184,1.095,0.445
	c0.331,0.354,0.499,0.764,0.499,1.748v0.092c0,0-2.778,0-2.806,0c0,0-0.008,0.172,0,0.248c0.018,0.465,0.123,0.826,0.289,1.068
	c0.238,0.354,0.633,0.547,1.123,0.547c0.439,0,0.807-0.125,1.106-0.396l0.191,0.309c-0.367,0.313-0.832,0.49-1.395,0.49
	C63.42,54.163,62.761,53.233,62.761,51.856z M65.603,51.542c0-0.527-0.087-0.861-0.229-1.088c-0.166-0.271-0.482-0.467-0.885-0.467
	c-0.657,0-1.142,0.521-1.185,1.555H65.603z"/>
<path d="M67.121,50.63c0-0.578-0.114-0.824-0.139-0.877l0.473-0.123c0.026,0.043,0.15,0.289,0.131,0.738
	c0.125-0.186,0.291-0.359,0.475-0.492c0.254-0.193,0.499-0.273,0.746-0.273c0.113,0,0.228,0.033,0.235,0.047l-0.192,0.506
	c-0.043-0.016-0.121-0.035-0.192-0.035c-0.272,0-0.534,0.109-0.763,0.334c-0.229,0.227-0.299,0.387-0.299,0.736v2.885h-0.475V50.63z
	"/>
<path d="M69.587,50.622c0-0.58-0.122-0.826-0.143-0.879l0.465-0.107c0.02,0.037,0.141,0.318,0.141,0.668
	c0.281-0.359,0.807-0.691,1.283-0.691c0.516,0,0.892,0.316,1.023,0.771c0.367-0.455,0.901-0.771,1.377-0.771
	c0.664,0,1.078,0.473,1.078,1.174v3.289H74.32v-3.244c0-0.484-0.21-0.789-0.699-0.789c-0.414,0-0.797,0.273-1.211,0.744
	c0,0.027,0,3.289,0,3.289h-0.475v-3.191c0-0.281-0.051-0.473-0.162-0.613c-0.127-0.143-0.292-0.213-0.557-0.213
	c-0.367,0-0.762,0.213-1.172,0.658v3.359h-0.457V50.622z"/>
<path d="M76.271,53.442c-0.264-0.385-0.404-0.912-0.404-1.566c0-0.68,0.168-1.246,0.455-1.635c0.273-0.357,0.729-0.639,1.34-0.639
	c0.721,0,1.18,0.359,1.434,0.744c0.252,0.387,0.383,0.893,0.383,1.588c0,0.596-0.123,1.061-0.332,1.418
	c-0.27,0.482-0.781,0.82-1.465,0.82C77.007,54.173,76.533,53.853,76.271,53.442z M78.734,53.11c0.143-0.307,0.209-0.633,0.209-1.143
	c0-0.619-0.088-1.057-0.252-1.373c-0.176-0.354-0.572-0.596-1.037-0.596c-0.48,0-0.848,0.254-1.008,0.541
	c-0.166,0.301-0.262,0.721-0.262,1.266c0,0.623,0.113,1.143,0.297,1.445c0.168,0.268,0.535,0.525,1.008,0.525
	C78.216,53.776,78.576,53.485,78.734,53.11z"/>
<path d="M82.41,48.058h3.059l-0.076,0.416H82.91v2.25h2.043v0.412H82.91v2.939h-0.5V48.058z"/>
<path d="M85.867,48.331c0-0.209,0.176-0.381,0.387-0.381s0.387,0.164,0.387,0.381c0,0.213-0.176,0.385-0.387,0.385
	S85.867,48.544,85.867,48.331z M85.998,49.71l0.492-0.08v4.445h-0.492V49.71z"/>
<path d="M87.349,53.761l0.186-0.355c0.393,0.258,0.857,0.398,1.357,0.398c0.631,0,1.019-0.361,1.019-0.887
	c0-0.412-0.214-0.701-0.8-0.824l-0.541-0.104c-0.676-0.141-1.061-0.535-1.061-1.148c0-0.729,0.561-1.256,1.453-1.256
	c0.465,0,0.912,0.131,1.245,0.344l-0.193,0.348c-0.323-0.182-0.677-0.314-1.069-0.314c-0.604,0-0.947,0.354-0.947,0.824
	c0,0.42,0.238,0.646,0.729,0.756l0.563,0.113c0.796,0.168,1.122,0.578,1.122,1.176c0,0.795-0.606,1.348-1.544,1.348
	C88.314,54.179,87.753,54.022,87.349,53.761z"/>
<path d="M91.381,48.659c0-0.555-0.092-0.854-0.111-0.896l0.475-0.098c0.018,0.043,0.113,0.359,0.113,1.01v1.158
	c0,0.252-0.016,0.514-0.016,0.514c0.385-0.393,0.891-0.717,1.453-0.717c0.482,0,0.877,0.24,0.998,0.563
	c0.098,0.176,0.16,0.365,0.16,0.682v3.201h-0.477v-3.121c0-0.318-0.068-0.543-0.209-0.684c-0.113-0.123-0.316-0.213-0.578-0.213
	c-0.447,0-0.938,0.264-1.332,0.756v3.262h-0.477V48.659z"/>
<path d="M95.522,51.856c0-0.744,0.17-1.246,0.52-1.658c0.299-0.348,0.701-0.586,1.234-0.586c0.465,0,0.832,0.184,1.095,0.445
	c0.336,0.354,0.502,0.764,0.502,1.748v0.092c0,0-2.777,0-2.804,0c0,0-0.01,0.172,0,0.248c0.016,0.465,0.121,0.826,0.289,1.068
	c0.234,0.354,0.627,0.547,1.121,0.547c0.439,0,0.804-0.125,1.103-0.396l0.195,0.309c-0.369,0.313-0.835,0.49-1.396,0.49
	C96.182,54.163,95.522,53.233,95.522,51.856z M98.363,51.542c0-0.527-0.086-0.861-0.225-1.088c-0.169-0.271-0.482-0.467-0.888-0.467
	c-0.658,0-1.139,0.521-1.182,1.555H98.363z"/>
<path d="M99.885,50.63c0-0.578-0.117-0.824-0.143-0.877l0.471-0.123c0.035,0.043,0.154,0.289,0.135,0.738
	c0.125-0.186,0.293-0.359,0.471-0.492c0.262-0.193,0.5-0.273,0.748-0.273c0.111,0,0.232,0.033,0.238,0.047l-0.193,0.506
	c-0.045-0.016-0.119-0.035-0.193-0.035c-0.271,0-0.533,0.109-0.764,0.334c-0.227,0.227-0.293,0.387-0.293,0.736v2.885h-0.477V50.63z
	"/>
<path d="M103.543,53.653l0.219-0.393c0.473,0.338,0.973,0.5,1.578,0.5c0.451,0,0.777-0.088,1.025-0.291
	c0.307-0.23,0.451-0.563,0.451-0.971c0-0.336-0.098-0.607-0.307-0.799c-0.205-0.203-0.5-0.344-0.818-0.439l-0.605-0.195
	c-0.473-0.148-0.777-0.287-0.998-0.514c-0.246-0.264-0.359-0.607-0.359-0.99c0-0.973,0.771-1.605,1.824-1.605
	c0.625,0,1.166,0.18,1.65,0.518l-0.213,0.357c-0.506-0.324-0.879-0.463-1.412-0.463c-0.77,0-1.316,0.404-1.316,1.096
	c0,0.279,0.061,0.535,0.252,0.719c0.168,0.164,0.439,0.305,0.799,0.412l0.66,0.209c0.443,0.141,0.756,0.299,1.004,0.57
	c0.238,0.262,0.4,0.65,0.4,1.055c0,0.559-0.266,1.057-0.732,1.381c-0.346,0.24-0.779,0.363-1.305,0.363
	C104.654,54.173,104.088,54.003,103.543,53.653z"/>
<path d="M108.494,53.485c-0.26-0.395-0.4-0.883-0.4-1.543c0-0.947,0.262-1.455,0.621-1.83c0.332-0.332,0.705-0.5,1.15-0.5
	c0.531,0,0.865,0.201,1.158,0.463l-0.266,0.336c-0.293-0.264-0.533-0.377-0.898-0.377c-0.355,0-0.691,0.164-0.898,0.475
	c-0.219,0.322-0.346,0.811-0.346,1.529c0,1.008,0.393,1.738,1.258,1.738c0.379,0,0.725-0.166,0.998-0.482l0.268,0.305
	c-0.381,0.396-0.766,0.564-1.279,0.564C109.252,54.163,108.793,53.925,108.494,53.485z"/>
<path d="M111.803,48.331c0-0.209,0.178-0.381,0.387-0.381c0.211,0,0.385,0.164,0.385,0.381c0,0.213-0.174,0.385-0.385,0.385
	C111.98,48.716,111.803,48.544,111.803,48.331z M111.936,49.71l0.492-0.08v4.445h-0.492V49.71z"/>
<path d="M113.52,51.856c0-0.744,0.174-1.246,0.52-1.658c0.299-0.348,0.705-0.586,1.238-0.586c0.467,0,0.832,0.184,1.1,0.445
	c0.33,0.354,0.498,0.764,0.498,1.748v0.092c0,0-2.783,0-2.811,0c0,0-0.006,0.172,0,0.248c0.021,0.465,0.129,0.826,0.293,1.068
	c0.234,0.354,0.635,0.547,1.119,0.547c0.439,0,0.805-0.125,1.104-0.396l0.193,0.309c-0.365,0.313-0.832,0.49-1.389,0.49
	C114.18,54.163,113.52,53.233,113.52,51.856z M116.363,51.542c0-0.527-0.09-0.861-0.227-1.088c-0.168-0.271-0.486-0.467-0.887-0.467
	c-0.658,0-1.139,0.521-1.186,1.555H116.363z"/>
<path d="M117.879,50.63c0-0.572-0.125-0.824-0.146-0.867l0.467-0.127c0.02,0.037,0.139,0.309,0.139,0.695
	c0.434-0.455,0.906-0.701,1.404-0.701c0.447,0,0.805,0.209,0.973,0.518c0.107,0.168,0.166,0.377,0.166,0.605v3.322h-0.473v-3.08
	c0-0.412-0.072-0.578-0.207-0.742c-0.111-0.125-0.316-0.211-0.564-0.211c-0.393,0-0.939,0.273-1.289,0.674v3.359h-0.469V50.63z"/>
<path d="M122.604,54.032c-0.238-0.145-0.346-0.406-0.346-0.809v-3.154h-0.57V49.71h0.57c0-0.447,0.055-1.027,0.074-1.121
	l0.506-0.107c-0.025,0.09-0.094,0.648-0.094,1.229h1.078l-0.152,0.359h-0.945v3.031c0,0.482,0.146,0.717,0.584,0.717
	c0.209,0,0.334-0.033,0.463-0.094l0.064,0.314c-0.193,0.098-0.398,0.15-0.678,0.15C122.91,54.188,122.744,54.118,122.604,54.032z"/>
<path d="M124.482,48.331c0-0.209,0.172-0.381,0.387-0.381c0.205,0,0.379,0.164,0.379,0.381c0,0.213-0.174,0.385-0.379,0.385
	C124.654,48.716,124.482,48.544,124.482,48.331z M124.607,49.71l0.494-0.08v4.445h-0.494V49.71z"/>
<path d="M126.486,50.069h-0.42V49.71h0.42v-0.816c0-0.541,0.232-0.799,0.387-0.93c0.178-0.15,0.398-0.234,0.705-0.234
	c0.318,0,0.611,0.076,0.838,0.227l-0.188,0.342c-0.164-0.105-0.393-0.193-0.611-0.193c-0.398,0-0.633,0.289-0.633,0.799v0.807h1.158
	l-0.139,0.359h-1.02v4.006h-0.498V50.069z"/>
<path d="M128.508,48.331c0-0.209,0.174-0.381,0.379-0.381c0.215,0,0.389,0.164,0.389,0.381c0,0.213-0.174,0.385-0.389,0.385
	C128.682,48.716,128.508,48.544,128.508,48.331z M128.635,49.71l0.494-0.08v4.445h-0.494V49.71z"/>
<path d="M130.625,53.485c-0.258-0.395-0.398-0.883-0.398-1.543c0-0.947,0.26-1.455,0.617-1.83c0.336-0.332,0.707-0.5,1.152-0.5
	c0.533,0,0.865,0.201,1.158,0.463l-0.264,0.336c-0.301-0.264-0.535-0.377-0.9-0.377c-0.354,0-0.699,0.164-0.898,0.475
	c-0.221,0.322-0.352,0.811-0.352,1.529c0,1.008,0.398,1.738,1.262,1.738c0.379,0,0.727-0.166,1-0.482l0.268,0.305
	c-0.379,0.396-0.766,0.564-1.279,0.564C131.385,54.163,130.924,53.925,130.625,53.485z"/>
<path d="M135.916,48.058h1.025c0.992,0,1.307,0.074,1.598,0.213c0.506,0.236,0.832,0.711,0.832,1.277
	c0,0.625-0.404,1.133-1.178,1.326c0.406,0.061,0.672,0.176,0.877,0.332c0.387,0.285,0.574,0.756,0.574,1.223
	c0,0.65-0.359,1.234-0.951,1.459c-0.318,0.125-0.539,0.188-1.439,0.188h-1.338V48.058z M137.502,50.706
	c0.412,0,0.719-0.076,0.938-0.234c0.213-0.174,0.379-0.457,0.379-0.859c0-0.467-0.225-0.816-0.598-0.975
	c-0.18-0.094-0.445-0.156-0.84-0.156h-0.977v2.225H137.502z M137.574,53.663c0.492,0,0.744-0.064,0.973-0.193
	c0.42-0.219,0.57-0.625,0.57-1.078c0-0.494-0.252-0.938-0.678-1.096c-0.219-0.105-0.525-0.166-0.938-0.166h-1.098v2.533H137.574z"/>
<path d="M140.715,50.63c0-0.578-0.111-0.824-0.139-0.877l0.473-0.123c0.027,0.043,0.148,0.289,0.135,0.738
	c0.119-0.186,0.283-0.359,0.471-0.492c0.252-0.193,0.5-0.273,0.746-0.273c0.113,0,0.227,0.033,0.234,0.047l-0.195,0.506
	c-0.039-0.016-0.117-0.035-0.193-0.035c-0.264,0-0.531,0.109-0.756,0.334c-0.229,0.227-0.303,0.387-0.303,0.736v2.885h-0.473V50.63z
	"/>
<path d="M145.434,53.573c-0.379,0.412-0.764,0.6-1.262,0.6c-1.078,0-1.387-0.633-1.387-1.225c0-0.986,0.854-1.494,2.236-1.494
	c0.174,0,0.34,0.01,0.389,0.016v-0.404c0-0.418-0.043-0.648-0.182-0.803c-0.145-0.158-0.338-0.254-0.639-0.254
	c-0.521,0-1.086,0.254-1.412,0.531l-0.23-0.342c0.512-0.359,1.09-0.586,1.701-0.586c0.527,0,0.906,0.201,1.074,0.561
	c0.131,0.238,0.16,0.58,0.145,1l-0.031,1.584c-0.006,0.713,0.031,0.939,0.379,1.109l-0.248,0.338
	C145.689,54.108,145.504,53.888,145.434,53.573z M145.367,53.147c-0.006-0.057,0-0.434,0-0.418c0.016-0.199,0.021-0.924,0.021-0.924
	c-0.105-0.01-0.268-0.02-0.395-0.02c-1.148,0-1.682,0.359-1.682,1.121c0,0.525,0.252,0.902,0.938,0.902
	C144.719,53.81,145.135,53.56,145.367,53.147z"/>
<path d="M147.24,50.63c0-0.572-0.129-0.824-0.148-0.867l0.467-0.127c0.014,0.037,0.141,0.309,0.141,0.695
	c0.426-0.455,0.906-0.701,1.402-0.701c0.447,0,0.807,0.209,0.975,0.518c0.105,0.168,0.164,0.377,0.164,0.605v3.322h-0.471v-3.08
	c0-0.412-0.074-0.578-0.207-0.742c-0.113-0.125-0.32-0.211-0.564-0.211c-0.393,0-0.939,0.273-1.293,0.674v3.359h-0.465V50.63z"/>
<path d="M151.744,53.495c-0.266-0.369-0.412-0.93-0.412-1.576c0-0.859,0.26-1.502,0.76-1.91c0.299-0.256,0.605-0.373,0.957-0.373
	c0.514,0,0.947,0.215,1.213,0.563c0,0-0.014-0.314-0.014-0.576v-1.947l0.473,0.078v5.004c0,0.703,0.033,1.061,0.133,1.318h-0.479
	c-0.027-0.053-0.1-0.309-0.107-0.516c-0.299,0.398-0.705,0.576-1.205,0.576C152.477,54.136,152.031,53.909,151.744,53.495z
	 M154.248,53.073V50.54c-0.213-0.299-0.572-0.506-1.131-0.506c-0.359,0-0.699,0.164-0.912,0.48
	c-0.232,0.342-0.348,0.725-0.348,1.395c0,0.52,0.068,0.992,0.227,1.262c0.221,0.379,0.547,0.561,1,0.561
	C153.67,53.731,154.068,53.425,154.248,53.073z"/>
<path fill="#005DA9" d="M0,20.7C0,9.266,9.269,0,20.698,0c11.438,0,20.705,9.266,20.705,20.7c0,11.434-9.267,20.701-20.705,20.701
	C9.269,41.401,0,32.134,0,20.7z M20.698,20.7 M20.663,37.05c9.017,0,16.323-7.31,16.323-16.328c0-9.012-7.307-16.319-16.323-16.319
	c-9.014,0-16.32,7.308-16.32,16.319C4.342,29.74,11.648,37.05,20.663,37.05z M20.663,20.722"/>
<polygon fill="#005DA9" points="31.998,8.989 17.733,8.989 13.657,13.084 13.657,17.814 12.483,17.814 9.563,22.568 13.657,22.568 
	13.657,35.468 18.411,30.716 18.411,22.568 24.181,22.568 26.925,17.814 18.411,17.814 18.411,13.741 29.272,13.741 "/>
<path d="M48.389,4.976h9.346V8.97h-4.238v1.445h3.719v3.625h-3.719v4.884h-5.107V4.976z"/>
<path d="M64.484,6.067c0,1.609-1.259,2.313-2.628,2.313c-1.367,0-2.628-0.704-2.628-2.313c0-1.426,1.132-2.296,2.628-2.296
	C63.358,3.771,64.484,4.642,64.484,6.067z M59.471,9.102h4.771v9.822h-4.771V9.102z"/>
<path d="M66.722,15.093l0.299,0.186c0.666,0.409,1.626,0.906,2.44,0.906c0.314,0,0.704-0.164,0.704-0.535
	c0-0.537-0.574-0.557-0.963-0.61c-1.59-0.224-3.07-0.868-3.07-2.722c0-2.459,2.48-3.439,4.588-3.439c1.219,0,2.74,0.24,3.812,0.833
	l-1.165,2.72c-0.613-0.443-1.428-0.814-2.203-0.814c-0.295,0-0.686,0.094-0.686,0.443c0,0.481,0.518,0.518,1.188,0.631
	c1.701,0.277,3.088,0.865,3.088,2.848c0,2.553-2.534,3.605-4.754,3.605c-1.555,0-3.072-0.48-4.496-1.09L66.722,15.093z"/>
<path d="M75.972,3.922h4.773v4.143l-0.219,2.718h0.068c0.893-1.051,1.797-1.904,3.164-1.904c2.443,0,3.311,1.851,3.311,4.015v6.031
	h-4.66v-5.068c0-0.519-0.072-1.165-0.758-1.165c-0.74,0-0.906,0.555-0.906,1.165v5.068h-4.773V3.922z"/>
<path d="M93.176,14.815c0,0.797,0.131,1.686,1.131,1.686c0.5,0,0.869-0.352,0.959-0.813h4.646c-0.631,2.366-3.275,3.456-5.529,3.456
	c-3.09,0-5.921-1.59-5.921-4.973c0-3.259,2.515-5.293,5.644-5.293c3.494,0,6.255,2.26,6.015,5.938H93.176z M95.415,12.783
	c0-0.669-0.477-1.277-1.16-1.277c-0.727,0-1.078,0.593-1.078,1.277H95.415z"/>
<path d="M109.611,13.726c-0.506-0.295-0.857-0.535-1.471-0.535c-1.238,0-1.855,0.736-1.855,1.959v3.774h-4.779V9.102h4.779
	l-0.121,1.313h0.121c0.844-1.297,1.709-1.574,3.326-1.537V13.726z"/>
<path d="M49.221,32.575l0.261,0.205c0.908,0.705,1.997,1.277,3.165,1.277c0.498,0,1.291-0.199,1.291-0.834
	c0-0.627-0.664-0.684-1.125-0.777l-1.017-0.184c-1.983-0.35-3.647-1.518-3.647-3.701c0-3.313,3.017-5.161,6.05-5.161
	c1.594,0,3.052,0.39,4.423,1.222l-1.371,3.57c-0.869-0.59-1.847-1.057-2.939-1.057c-0.443,0-1.092,0.167-1.092,0.744
	c0,0.515,0.627,0.589,1.016,0.682l1.148,0.262c2.146,0.477,3.697,1.627,3.697,3.994c0,3.33-3.031,4.977-6.047,4.977
	c-1.758,0-3.794-0.479-5.364-1.277L49.221,32.575z"/>
<path d="M67.984,32.005c-0.501-0.426-1.072-0.813-1.759-0.813c-0.868,0-1.501,0.57-1.501,1.461c0,0.775,0.633,1.404,1.408,1.404
	c0.742,0,1.296-0.371,1.852-0.756l-0.205,4.029c-0.739,0.24-1.573,0.463-2.404,0.463c-3.183,0-5.46-1.795-5.46-5.084
	c0-2.906,2.127-5.182,5.07-5.182c1.001,0,2.036,0.185,2.999,0.498V32.005z"/>
<path d="M74.976,24.716c0,1.607-1.259,2.309-2.629,2.309c-1.366,0-2.625-0.701-2.625-2.309c0-1.424,1.129-2.295,2.625-2.295
	C73.847,22.421,74.976,23.292,74.976,24.716z M69.962,27.75h4.771v9.821h-4.771V27.75z"/>
<path d="M81.171,33.464c0,0.797,0.131,1.686,1.131,1.686c0.498,0,0.867-0.35,0.961-0.816h4.645
	c-0.633,2.371-3.277,3.461-5.535,3.461c-3.088,0-5.918-1.59-5.918-4.977c0-3.257,2.516-5.289,5.643-5.289
	c3.492,0,6.248,2.256,6.012,5.936H81.171z M83.412,31.431c0-0.664-0.482-1.275-1.168-1.275c-0.721,0-1.072,0.59-1.072,1.275H83.412z
	"/>
<path d="M93.991,29.321h0.115c0.924-1.072,1.629-1.793,3.164-1.793c2.433,0,3.404,1.829,3.404,3.996v6.047h-4.775V32.78
	c0-0.57,0-1.389-0.816-1.389c-0.795,0-0.795,0.818-0.795,1.389v4.791h-4.772V27.75h4.661L93.991,29.321z"/>
<path d="M107.816,27.88l1.59-0.074v3.756l-1.59-0.094v6.104h-4.814v-6.104l-1.164,0.094v-3.756l1.164,0.074v-3.297h4.814V27.88z"/>
<path d="M115.563,24.716c0,1.607-1.256,2.309-2.621,2.309c-1.373,0-2.631-0.701-2.631-2.309c0-1.424,1.133-2.295,2.631-2.295
	C114.432,22.421,115.563,23.292,115.563,24.716z M110.551,27.75h4.773v9.821h-4.773V27.75z"/>
<path d="M117.807,26.879c0-2.868,1.291-4.458,4.254-4.458c0.697,0,1.383,0.108,2.084,0.222v3.792
	c-0.234-0.092-0.422-0.168-0.648-0.168c-0.811,0-0.99,0.666-0.99,1.315v0.372l1.604-0.204v3.829l-1.539-0.131v6.123h-4.764v-6.123
	l-1.299,0.131V27.75l1.299,0.166V26.879z"/>
<path d="M130.473,24.716c0,1.607-1.26,2.309-2.629,2.309c-1.363,0-2.623-0.701-2.623-2.309c0-1.424,1.133-2.295,2.623-2.295
	C129.348,22.421,130.473,23.292,130.473,24.716z M125.463,27.75h4.77v9.821h-4.77V27.75z"/>
<path d="M139.945,32.005c-0.502-0.426-1.072-0.813-1.752-0.813c-0.871,0-1.504,0.57-1.504,1.461c0,0.775,0.633,1.404,1.406,1.404
	c0.736,0,1.297-0.371,1.85-0.756l-0.201,4.029c-0.744,0.24-1.57,0.463-2.41,0.463c-3.174,0-5.449-1.795-5.449-5.084
	c0-2.906,2.123-5.182,5.064-5.182c0.998,0,2.029,0.185,2.996,0.498V32.005z"/>
</svg>
